<svg width="95" height="55" viewBox="0 0 95 55" fill="none" xmlns="http://www.w3.org/2000/svg">
<path d="M2.17766 33.9091V18.1269H5.11627L14.6616 31.0013L24.0631 18.1269H27.0017V33.9091H25.0289V19.9147L15.6069 32.8713H13.8191L4.15043 19.9147V33.9091H2.17766ZM29.6731 33.9091L38.8794 18.1269H41.5098L50.716 33.9091H48.4145L46.4417 30.2923H33.9475L31.9747 33.9091H29.6731ZM34.9339 28.6483H45.4553L40.1946 19.4421L34.9339 28.6483ZM53.3875 18.1269H63.95C65.4912 18.1269 66.7311 18.1954 67.6695 18.3324C68.6148 18.4694 69.3306 18.7057 69.817 19.0414C70.3033 19.377 70.6321 19.8359 70.8033 20.4182C70.9746 21.0004 71.0602 21.7368 71.0602 22.6273V23.0383C71.0602 23.8603 70.9609 24.5692 70.7622 25.1652C70.5704 25.7543 70.1971 26.2337 69.6423 26.6036C69.0874 26.9667 68.2655 27.2236 67.1763 27.3743L70.6081 33.9091H68.6354L65.2755 27.5181C65.1385 27.525 64.9946 27.5284 64.8439 27.5284C64.7001 27.5284 64.5494 27.5284 64.3918 27.5284H55.3603V33.9091H53.3875V18.1269ZM55.3603 25.8228H64.0836C65.2549 25.8228 66.1762 25.7851 66.8475 25.7097C67.5257 25.6275 68.0223 25.4871 68.3374 25.2885C68.6593 25.0898 68.8648 24.809 68.9539 24.4459C69.0429 24.0829 69.0874 23.6137 69.0874 23.0383V22.6273C69.0874 21.9765 69.0258 21.4628 68.9025 21.0861C68.7792 20.7093 68.5326 20.4319 68.1627 20.2538C67.7928 20.0757 67.2414 19.9627 66.5085 19.9147C65.7755 19.8599 64.796 19.8325 63.5699 19.8325H55.3603V25.8228ZM91.5996 29.347C91.5996 28.7374 91.5517 28.2579 91.4558 27.9085C91.3599 27.5592 91.1441 27.3023 90.8085 27.1379C90.4728 26.9667 89.9522 26.8571 89.2467 26.8091C88.5412 26.7543 87.5753 26.7167 86.3492 26.6961L80.6364 26.6139C79.2253 26.5934 78.0916 26.5077 77.2354 26.357C76.3792 26.2064 75.7318 25.97 75.2935 25.6481C74.8551 25.3193 74.5605 24.8809 74.4098 24.3329C74.266 23.7849 74.194 23.0999 74.194 22.2779C74.194 21.3806 74.2934 20.6408 74.492 20.0586C74.6975 19.4763 75.064 19.0208 75.5914 18.692C76.1257 18.3632 76.8792 18.1337 77.8519 18.0036C78.8246 17.8666 80.0815 17.7981 81.6228 17.7981H86.0204C87.4178 17.7981 88.5823 17.8426 89.5138 17.9317C90.4454 18.0207 91.1852 18.2262 91.7332 18.5482C92.2812 18.8701 92.6716 19.3702 92.9045 20.0483C93.1443 20.7264 93.2642 21.658 93.2642 22.8431H91.2914C91.2914 21.9252 91.2023 21.2333 91.0242 20.7675C90.853 20.2949 90.5653 19.9729 90.1612 19.8017C89.7639 19.6305 89.2261 19.538 88.548 19.5243C87.8699 19.5106 87.0273 19.5037 86.0204 19.5037H81.7255C80.4994 19.5037 79.5164 19.5277 78.7766 19.5757C78.0437 19.6236 77.4888 19.7332 77.1121 19.9044C76.7354 20.0757 76.4819 20.3497 76.3518 20.7264C76.2285 21.1032 76.1668 21.6203 76.1668 22.2779C76.1668 22.8328 76.2113 23.278 76.3004 23.6137C76.3894 23.9493 76.5881 24.2062 76.8963 24.3843C77.2114 24.5555 77.6943 24.6754 78.3451 24.7439C78.9958 24.8055 79.8829 24.8432 81.0063 24.8569L87.1301 24.9391C88.5686 24.9597 89.7159 25.0453 90.5721 25.196C91.4352 25.3398 92.0791 25.5762 92.5038 25.905C92.9354 26.2337 93.2196 26.679 93.3566 27.2407C93.5005 27.7955 93.5724 28.4976 93.5724 29.347C93.5724 30.2718 93.4834 31.0492 93.3053 31.6794C93.134 32.3028 92.7984 32.8028 92.2983 33.1795C91.7983 33.5563 91.0756 33.8269 90.1303 33.9913C89.185 34.1557 87.9418 34.2379 86.4006 34.2379H81.5919C80.1877 34.2379 79.0095 34.1762 78.0574 34.0529C77.1053 33.9296 76.3449 33.683 75.7764 33.3131C75.2147 32.9364 74.8105 32.3781 74.5639 31.6383C74.3173 30.8985 74.194 29.9121 74.194 28.6792H76.1668C76.1668 29.645 76.2456 30.3916 76.4031 30.9191C76.5607 31.4465 76.8347 31.8267 77.2251 32.0596C77.6224 32.2856 78.1738 32.4226 78.8794 32.4706C79.5918 32.5117 80.4959 32.5322 81.5919 32.5322H86.2978C87.5239 32.5322 88.4932 32.4946 89.2056 32.4192C89.918 32.337 90.4454 32.1863 90.7879 31.9671C91.1304 31.7411 91.3496 31.4191 91.4455 31.0013C91.5483 30.5834 91.5996 30.032 91.5996 29.347Z" fill="#FAFAFF"/>
<circle cx="44.5457" cy="27.2727" r="26.8182" stroke="#FAFAFF" stroke-width="0.909091"/>
</svg>
